name D:\school\WTK\thesis\model\3dpredictsim\Results\Batchsim_tmt_linear\Pog_s1_tmt_bCst_d00_k800_ig24_act.mot
datacolumns 128
datarows 4
range 1.92952998 1.96812058
endheader
time	pelvis_tilt	pelvis_list	pelvis_rotation	pelvis_tx	pelvis_ty	pelvis_tz	hip_flexion_l	hip_adduction_l	hip_rotation_l	hip_flexion_r	hip_adduction_r	hip_rotation_r	knee_angle_l	knee_angle_r	ankle_angle_l	ankle_angle_r	subtalar_angle_l	subtalar_angle_r	tmt_angle_l	tmt_angle_r	mtp_angle_l	mtp_angle_r	lumbar_extension	lumbar_bending	lumbar_rotation	arm_flex_l	arm_add_l	arm_rot_l	arm_flex_r	arm_add_r	arm_rot_r	elbow_flex_l	elbow_flex_r	pro_sup_l	pro_sup_r	glut_med1_l/activation	glut_med2_l/activation	glut_med3_l/activation	glut_min1_l/activation	glut_min2_l/activation	glut_min3_l/activation	semimem_l/activation	semiten_l/activation	bifemlh_l/activation	bifemsh_l/activation	sar_l/activation	add_long_l/activation	add_brev_l/activation	add_mag1_l/activation	add_mag2_l/activation	add_mag3_l/activation	tfl_l/activation	pect_l/activation	grac_l/activation	glut_max1_l/activation	glut_max2_l/activation	glut_max3_l/activation	iliacus_l/activation	psoas_l/activation	quad_fem_l/activation	gem_l/activation	peri_l/activation	rect_fem_l/activation	vas_med_l/activation	vas_int_l/activation	vas_lat_l/activation	med_gas_l/activation	lat_gas_l/activation	soleus_l/activation	tib_post_l/activation	flex_dig_l/activation	flex_hal_l/activation	tib_ant_l/activation	per_brev_l/activation	per_long_l/activation	per_tert_l/activation	ext_dig_l/activation	ext_hal_l/activation	ercspn_l/activation	intobl_l/activation	extobl_l/activation	glut_med1_r/activation	glut_med2_r/activation	glut_med3_r/activation	glut_min1_r/activation	glut_min2_r/activation	glut_min3_r/activation	semimem_r/activation	semiten_r/activation	bifemlh_r/activation	bifemsh_r/activation	sar_r/activation	add_long_r/activation	add_brev_r/activation	add_mag1_r/activation	add_mag2_r/activation	add_mag3_r/activation	tfl_r/activation	pect_r/activation	grac_r/activation	glut_max1_r/activation	glut_max2_r/activation	glut_max3_r/activation	iliacus_r/activation	psoas_r/activation	quad_fem_r/activation	gem_r/activation	peri_r/activation	rect_fem_r/activation	vas_med_r/activation	vas_int_r/activation	vas_lat_r/activation	med_gas_r/activation	lat_gas_r/activation	soleus_r/activation	tib_post_r/activation	flex_dig_r/activation	flex_hal_r/activation	tib_ant_r/activation	per_brev_r/activation	per_long_r/activation	per_tert_r/activation	ext_dig_r/activation	ext_hal_r/activation	ercspn_r/activation	intobl_r/activation	extobl_r/activation	
          1.92952998	         -2.92697954	          1.41914499	         -9.20991495	          2.41191247	          0.85397769	          0.00287891	         33.85437624	          0.33157532	         -0.95843259	        -17.03665764	         -2.86247395	          8.48412545	        -15.22558346	        -15.75191167	          9.85567977	         -9.94111854	         -1.56400325	         13.98541993	          0.02919821	          1.25640077	         -0.08094856	         30.87981051	         -0.60214948	          1.26914277	          3.71579914	        -12.44295612	        -13.61845440	          6.69128965	          3.03625970	        -13.53215395	         17.58317252	         19.57903637	         49.17638872	         86.51662706	         86.51662706	          0.12203049	          0.05000053	          0.05000769	          0.05000049	          0.05000061	          0.05000137	          0.18388998	          0.06412724	          0.15162798	          0.06072298	          0.05000239	          0.06120669	          0.08759856	          0.22635315	          0.16474928	          0.11851090	          0.06072005	          0.05018865	          0.07972264	          0.05000276	          0.07820645	          0.10612058	          0.06367064	          0.06224631	          0.25586222	          0.05001626	          0.05000135	          0.05000055	          0.05000562	          0.05252322	          0.05001020	          0.06071977	          0.06071993	          0.06071962	          0.05584006	          0.05000276	          0.06072270	          0.46274549	          0.32141941	          0.20880643	          0.09063052	          0.55547115	          0.24548108	          0.05000026	          0.14866582	          0.11923438	          0.13799182	          0.07373838	          0.08589199	          0.19707970	          0.12708623	          0.07387142	          0.05000646	          0.05000098	          0.05000093	          0.05000229	          0.07415232	          0.07720477	          0.05000097	          0.05000097	          0.05000212	          0.05000176	          0.16839933	          0.05000605	          0.05000247	          0.05001377	          0.05000888	          0.05000400	          0.41171518	          0.62057370	          0.05000380	          0.05000678	          0.07373893	          0.32389573	          0.08075735	          0.05736976	          0.06057151	          0.15001055	          0.23191456	          0.05592810	          0.16260714	          0.20206341	          0.21670801	          0.05000007	          0.36812281	          0.34581510	          0.05000032	          0.23880923	          0.05000039	          0.05000002	          0.05198504	          0.05000019	
          1.94239351	         -2.93017636	          1.37399752	         -9.43291533	          2.43295458	          0.85235448	          0.00253053	         33.17568142	          0.60411192	         -0.74869035	        -17.31839494	         -3.15390756	          8.16410474	        -15.31792834	        -16.90042753	          9.20183168	        -13.16158694	         -1.97058022	         14.44511595	          0.04913576	          1.14184305	         -0.07556301	         32.54959949	         -0.32712997	          1.09712238	          3.84104573	        -13.99305455	        -13.60425799	          6.59296582	          2.47092103	        -13.61110121	         17.86342909	         19.51896154	         50.55065679	         86.51662706	         86.51662706	          0.10048836	          0.06129060	          0.05000041	          0.06072392	          0.06071922	          0.05000703	          0.15142605	          0.05280626	          0.12485949	          0.05000374	          0.05005795	          0.05040178	          0.07213408	          0.18639447	          0.20031723	          0.14539983	          0.05000149	          0.05000440	          0.06564879	          0.06071925	          0.10948122	          0.13433538	          0.05243089	          0.05125757	          0.38754413	          0.06072144	          0.09015258	          0.06079705	          0.20353577	          0.20473365	          0.18397111	          0.05000014	          0.05000028	          0.05000001	          0.05000030	          0.07373496	          0.05000453	          0.65364116	          0.37391762	          0.24198930	          0.51045140	          0.64905820	          0.43645832	          0.05000004	          0.12241998	          0.09818442	          0.11363057	          0.06072082	          0.07072878	          0.16228700	          0.10465040	          0.06083046	          0.05000704	          0.05000060	          0.05000072	          0.05000380	          0.06106247	          0.17677640	          0.14296402	          0.09539937	          0.05001071	          0.05000233	          0.13866987	          0.09204378	          0.07324872	          0.05000529	          0.05000334	          0.05000245	          0.33902998	          0.51101613	          0.07262410	          0.06414596	          0.06072150	          0.26671434	          0.06650357	          0.12416049	          0.09869720	          0.12352728	          0.19097174	          0.05000002	          0.13390004	          0.16639066	          0.17844983	          0.23875517	          0.40407845	          0.33295384	          0.48857880	          0.43037549	          0.16557008	          0.05000082	          0.06902606	          0.06071986	
          1.95525705	         -2.92753011	          1.32745122	         -9.61457769	          2.45420488	          0.85036848	          0.00219808	         32.36857316	          0.87964841	         -0.47786524	        -17.38883310	         -3.39823381	          7.83788709	        -16.07286154	        -18.44750054	          8.36311527	        -16.08127553	         -2.39512493	         14.85209517	         -0.05037862	          0.91972501	         -0.14866488	         33.22575813	         -0.04849772	          0.90955191	          3.94565148	        -15.51051145	        -13.59897362	          6.59108477	          1.84027936	        -13.70302726	         18.07562887	         19.40028595	         51.89610453	         86.51662706	         86.51662706	          0.25298405	          0.26566477	          0.45511502	          0.05000415	          0.05000085	          0.34599500	          0.13050070	          0.05000106	          0.11845241	          0.05000037	          0.05000115	          0.07373766	          0.18171671	          0.24954273	          0.22740208	          0.17358852	          0.05000067	          0.06073681	          0.13206566	          0.05000044	          0.19662497	          0.18774624	          0.06071773	          0.05000400	          0.31912652	          0.05000254	          0.29049123	          0.05006384	          0.16760317	          0.16858961	          0.15149250	          0.06071949	          0.06071952	          0.06071959	          0.06071934	          0.06071856	          0.06071959	          0.54754015	          0.36509273	          0.19926829	          0.42043957	          0.67320683	          0.45995804	          0.05379078	          0.10080782	          0.08085068	          0.09357024	          0.05000210	          0.05824267	          0.13363669	          0.08617547	          0.05009169	          0.05001119	          0.06071931	          0.06071991	          0.05000051	          0.05028292	          0.18111819	          0.24028273	          0.11607277	          0.06127660	          0.06079561	          0.11418893	          0.07579683	          0.06072131	          0.05121811	          0.06071646	          0.06072144	          0.27917681	          0.43916376	          0.06072037	          0.05974067	          0.05000171	          0.21962787	          0.05476384	          0.10224108	          0.08127310	          0.10171944	          0.15725708	          0.05000018	          0.11026097	          0.13701570	          0.14694587	          0.36234074	          0.46668218	          0.33144451	          0.72468187	          0.54982265	          0.34019827	          0.07774440	          0.05684013	          0.05000039	
          1.96812058	         -2.92218848	          1.28774984	         -9.74955045	          2.47525218	          0.84816568	          0.00186043	         31.49997794	          1.16086363	         -0.17623445	        -17.19229652	         -3.59984051	          7.52044293	        -16.96448767	        -20.47281633	          7.68560340	        -18.31833481	         -2.83385791	         15.16227875	         -0.02823394	          0.66169931	         -0.15232049	         32.01213471	          0.20099193	          0.69959826	          4.02875986	        -16.89568845	        -13.60540450	          6.74720550	          1.21464931	        -13.78956877	         18.22054597	         19.15042681	         53.15490788	         86.51662706	         86.51662706	          0.33302819	          0.43102962	          0.52985784	          0.10782574	          0.23743260	          0.28491396	          0.10746178	          0.10260779	          0.09754060	          0.06935457	          0.05000133	          0.06071989	          0.14963600	          0.20548867	          0.24147593	          0.19237443	          0.05000049	          0.05001482	          0.10875109	          0.29039248	          0.26326250	          0.22593213	          0.05000013	          0.05000014	          0.26409246	          0.07269195	          0.23920783	          0.05000006	          0.13801535	          0.22367164	          0.19272702	          0.05000003	          0.05000006	          0.05000000	          0.05000001	          0.05000058	          0.05000037	          0.72970702	          0.42713715	          0.21193566	          0.68800046	          0.78760860	          0.55300456	          0.06826608	          0.08719056	          0.06657709	          0.14651133	          0.05000093	          0.05000025	          0.15714156	          0.07096312	          0.05000339	          0.05000610	          0.05000046	          0.05000084	          0.05000071	          0.06072001	          0.14914347	          0.19786283	          0.09558130	          0.05045927	          0.05006302	          0.09403026	          0.06241662	          0.05000221	          0.05000324	          0.05000236	          0.05000218	          0.22989038	          0.43360339	          0.05000077	          0.05000154	          0.05000133	          0.18085424	          0.06082260	          0.08954572	          0.08954582	          0.08376163	          0.12949452	          0.05000007	          0.09079521	          0.11282672	          0.12100373	          0.35319223	          0.39187677	          0.29297785	          0.69452194	          0.75765098	          0.28013881	          0.12487347	          0.05000002	          0.05000011	
